<?xml version="1.0" standalone="no"?>
<!DOCTYPE svg PUBLIC "-//W3C//DTD SVG 1.1//EN" "http://www.w3.org/Graphics/SVG/1.1/DTD/svg11.dtd" >
<svg xmlns="http://www.w3.org/2000/svg">
<metadata></metadata>
<defs>
<font id="helveticaneuecyrbold" horiz-adv-x="1175" >
<font-face units-per-em="2048" ascent="1638" descent="-410" />
<missing-glyph horiz-adv-x="569" />
<glyph horiz-adv-x="2048" />
<glyph horiz-adv-x="2048" />
<glyph unicode="&#xd;" horiz-adv-x="681" />
<glyph unicode=" "  horiz-adv-x="569" />
<glyph unicode="&#x09;" horiz-adv-x="569" />
<glyph unicode="&#xa0;" horiz-adv-x="569" />
<glyph unicode="!" horiz-adv-x="569" d="M125 0v313h317v-313h-317zM131 1065v393h305v-389l-80 -625h-145z" />
<glyph unicode="&#x22;" horiz-adv-x="948" d="M184 1421h217l-36 -600h-142zM547 1421h217l-39 -600h-139z" />
<glyph unicode="#" horiz-adv-x="1138" d="M6 393v172h215l53 289h-180v174h213l76 393h209l-76 -393h223l76 393h209l-76 -393h182v-174h-215l-53 -289h180v-172h-213l-75 -393h-209l76 393h-226l-73 -393h-209l75 393h-182zM430 565h223l54 289h-224z" />
<glyph unicode="$" horiz-adv-x="1138" d="M-12 444l2 13h291v-19q0 -233 231 -252v437q-100 16 -177 42.5t-150.5 71.5t-112.5 121t-39 178q0 203 134 306.5t345 117.5v156h111v-156q219 -4 345 -110.5t126 -286.5v-29h-273v15q0 182 -198 204v-395l12 -2q104 -16 186 -44t158 -77t118 -130t42 -187 q0 -201 -142.5 -325t-373.5 -128v-172h-111v172q-231 4 -377.5 128t-146.5 351zM303 1069q0 -37 13.5 -66.5t28.5 -47t50 -33t53.5 -21.5t63.5 -18v368q-98 -4 -153.5 -53t-55.5 -129zM623 184q102 2 164.5 60.5t62.5 150.5q0 158 -227 203v-414z" />
<glyph unicode="%" horiz-adv-x="2048" d="M160 1049q0 190 90 293.5t254 103.5q166 0 254 -99.5t88 -287.5q0 -199 -88 -304.5t-252 -105.5q-168 0 -257 103.5t-89 296.5zM369 1038q0 -129 30.5 -185t100.5 -56q72 0 103.5 61.5t31.5 200.5q0 47 -3 78.5t-14.5 73.5t-41 63.5t-74.5 21.5q-133 0 -133 -258z M522 -55l807 1530h180l-804 -1530h-183zM1212 371q0 190 90 293.5t254 103.5q166 0 254 -99.5t88 -287.5q0 -199 -88 -304.5t-251 -105.5q-168 0 -257.5 103.5t-89.5 296.5zM1421 360q0 -129 31 -185t100 -56q72 0 104 61.5t32 200.5q0 47 -3.5 79t-14.5 73.5t-41 63 t-75 21.5q-133 0 -133 -258z" />
<glyph unicode="&#x26;" horiz-adv-x="1402" d="M70 399q0 145 92 257t237 175q-137 166 -137 304q0 150 111.5 246t281.5 96q164 0 271.5 -98.5t107.5 -248.5q0 -233 -254 -368l189 -230q35 61 53 173h250q-25 -217 -139 -359l297 -346h-355l-121 143q-162 -174 -407 -174q-201 0 -339 116t-138 314zM352 408 q0 -82 60.5 -139.5t146.5 -57.5q129 0 242 127l-252 305q-197 -100 -197 -235zM520 1145q0 -80 117 -211q82 49 116.5 96t34.5 106.5t-37.5 97.5t-95 38t-96.5 -37t-39 -90z" />
<glyph unicode="'" horiz-adv-x="569" d="M174 1421h221l-43 -600h-135z" />
<glyph unicode="(" horiz-adv-x="606" d="M109 543q0 246 68.5 496.5t199.5 441.5h241q-119 -238 -173 -455t-54 -477q0 -451 232 -914h-246q-127 193 -197.5 432.5t-70.5 475.5z" />
<glyph unicode=")" horiz-adv-x="606" d="M-8 1481h241q272 -418 273 -912q0 -231 -72 -499.5t-196 -434.5h-244q123 250 175 462t52 476q0 496 -229 908z" />
<glyph unicode="*" horiz-adv-x="833" d="M45 1155l53 158l238 -90l-6 256h172l-8 -256l237 90l60 -158l-242 -80l149 -201l-135 -100l-149 211l-146 -211l-137 100l152 201z" />
<glyph unicode="+" horiz-adv-x="1228" d="M82 428v207h422v428h221v-428h422v-207h-422v-428h-221v428h-422z" />
<glyph unicode="," horiz-adv-x="569" d="M123 0v319h323v-260q0 -178 -78.5 -275t-244.5 -124v143q137 41 145 197h-145z" />
<glyph unicode="-" horiz-adv-x="833" d="M109 428v260h616v-260h-616z" />
<glyph unicode="." horiz-adv-x="569" d="M123 0v319h323v-319h-323z" />
<glyph unicode="/" horiz-adv-x="759" d="M-27 -35l559 1528h250l-557 -1528h-252z" />
<glyph unicode="0" horiz-adv-x="1138" d="M43 707q0 137 26.5 258.5t84 233.5t165 177.5t252.5 65.5q119 0 212.5 -45t150.5 -117t95 -170t52.5 -196.5t14.5 -206.5q0 -342 -139.5 -537t-383.5 -195q-250 0 -390 193.5t-140 538.5zM330 692q0 -481 241 -481q238 0 238 496q0 256 -57.5 375.5t-182.5 119.5 q-57 0 -100 -24.5t-68.5 -72.5t-41 -92t-21.5 -115t-7 -107.5t-1 -98.5z" />
<glyph unicode="1" horiz-adv-x="1138" d="M154 932v215h36q326 0 381 287h240v-1434h-309v932h-348z" />
<glyph unicode="2" horiz-adv-x="1138" d="M31 0q2 96 25.5 177t55 136.5t97 117t116 98t146.5 102.5q12 8 65.5 43t74 49t61.5 50t58.5 62.5t33.5 66.5t16 83q0 94 -56 150.5t-149 56.5q-221 0 -233 -311h-279v30q0 244 141.5 388.5t381.5 144.5q217 0 352 -122t135 -316q0 -158 -71.5 -252.5t-225.5 -198.5 q-20 -14 -75.5 -50t-87 -58.5t-76.5 -57.5t-78 -68.5t-56 -68.5h678v-252h-1050z" />
<glyph unicode="3" horiz-adv-x="1138" d="M29 473v21h280q2 -133 64.5 -204t179.5 -71q106 0 172 60.5t66 156.5q0 113 -73 163t-188 50q-43 0 -71 -2v205q23 -2 49 -2q250 0 250 180q0 82 -54.5 131t-144.5 49q-102 0 -158.5 -63.5t-58.5 -181.5h-276q8 223 139 351t356 128q213 0 345 -109.5t132 -283.5 q0 -104 -54 -181t-146 -102q119 -29 186.5 -116t67.5 -214q0 -205 -148.5 -335t-384.5 -130q-244 0 -387 135.5t-143 364.5z" />
<glyph unicode="4" horiz-adv-x="1138" d="M27 330v268l622 840h262v-867h193v-241h-193v-330h-270v330h-614zM260 571h381v533z" />
<glyph unicode="5" horiz-adv-x="1138" d="M23 424h286q10 -94 75 -152.5t161 -58.5q109 0 178.5 77t69.5 197.5t-68 192.5t-182 72q-137 0 -215 -119h-260l139 788h801v-247h-588l-55 -312q100 100 264 101q207 0 331.5 -129t124.5 -340q0 -225 -151.5 -371t-388.5 -146q-225 0 -367.5 116t-154.5 331z" />
<glyph unicode="6" horiz-adv-x="1138" d="M49 686q0 354 149.5 556t409.5 202q195 0 316.5 -100.5t148.5 -282.5h-276q-41 162 -193 162q-240 0 -272 -426q119 162 319 161q197 0 323 -133t126 -340q2 -223 -142.5 -366.5t-367.5 -143.5q-254 0 -397.5 187.5t-143.5 523.5zM358 475q0 -117 63.5 -190.5t164 -73.5 t166 75.5t65.5 190.5t-65.5 189.5t-167.5 74.5q-98 0 -162 -75.5t-64 -190.5z" />
<glyph unicode="7" horiz-adv-x="1138" d="M76 1159v262h979v-239q-238 -260 -345.5 -535.5t-127.5 -646.5h-301q0 258 146 613.5t333 545.5h-684z" />
<glyph unicode="8" horiz-adv-x="1138" d="M31 412q0 133 71.5 226t196.5 124q-102 35 -156.5 111.5t-54.5 185.5q0 168 137 277.5t344 109.5q209 0 345.5 -109.5t136.5 -277.5q0 -227 -209 -297q125 -31 196.5 -124t71.5 -226q0 -197 -148.5 -317t-392 -120t-391 120t-147.5 317zM322 430q0 -104 68.5 -168.5 t178.5 -64.5q113 0 181.5 63.5t68.5 167.5q0 102 -70.5 165.5t-185.5 63.5q-106 0 -173.5 -63.5t-67.5 -163.5zM354 1040q0 -88 59.5 -140t157.5 -52q100 0 158.5 52t58.5 140t-58.5 137.5t-160.5 49.5q-96 0 -155.5 -51.5t-59.5 -135.5z" />
<glyph unicode="9" horiz-adv-x="1138" d="M35 934q0 219 147.5 365.5t368.5 146.5q143 0 250.5 -60.5t167 -163t88 -221t28.5 -253.5q0 -139 -28.5 -268.5t-89 -246t-173 -187.5t-262.5 -71q-197 0 -323.5 104.5t-149.5 280.5h277q35 -164 196 -163q76 0 128.5 41t79 114.5t39 134t18.5 140.5q-117 -166 -308 -166 q-199 0 -326.5 133t-127.5 340zM319 944q0 -115 63.5 -188.5t164.5 -73.5q98 0 162.5 73.5t64.5 186.5t-65.5 188.5t-163.5 75.5q-96 0 -161 -74.5t-65 -187.5z" />
<glyph unicode=":" horiz-adv-x="569" d="M123 0v319h323v-319h-323zM123 723v319h323v-319h-323z" />
<glyph unicode=";" horiz-adv-x="569" d="M121 723v319h323v-319h-323zM125 0v319h324v-260q0 -178 -79 -275t-245 -124v143q137 41 145 197h-145z" />
<glyph unicode="&#x3c;" horiz-adv-x="1228" d="M82 424v215l1065 410v-250l-741 -267l741 -266v-254z" />
<glyph unicode="=" horiz-adv-x="1228" d="M82 203v229h1065v-229h-1065zM82 631v229h1065v-229h-1065z" />
<glyph unicode="&#x3e;" horiz-adv-x="1228" d="M82 12v254l741 266l-741 267v250l1065 -410v-215z" />
<glyph unicode="?" horiz-adv-x="1138" d="M63 987q14 236 145.5 369t371.5 133q219 0 352 -116t133 -304q0 -119 -60.5 -205t-170.5 -162q-90 -61 -117 -109t-27 -155h-272q0 143 23.5 220t117.5 157q12 10 51 41t55.5 47.5t41 45t35 59t10.5 67.5q0 74 -48.5 119t-128.5 45q-205 0 -213 -252h-299zM393 0v313h318 v-313h-318z" />
<glyph unicode="@" horiz-adv-x="1638" d="M61 709q0 332 238 558t586 226q305 0 498.5 -172t193.5 -442q0 -213 -127 -376t-295 -163q-80 0 -127 40t-47 109q0 25 4 41q-98 -190 -283 -190q-125 0 -201.5 87t-76.5 226q0 199 124 347.5t288 148.5q168 0 231 -139l29 106h174l-133 -457q-20 -74 -21 -110 q0 -82 84 -82q100 0 181 131t81 291q0 221 -159.5 359t-415.5 138q-305 0 -508 -194.5t-203 -489.5q0 -279 191.5 -455.5t492.5 -176.5q291 -1 561 196l60 -82q-160 -117 -307.5 -168t-319.5 -51q-342 0 -561 203q-231 213 -232 541zM629 643q0 -84 33.5 -130t95.5 -46 q72 0 132 82t87 177t27 163q0 59 -34 97t-91 38q-106 0 -178 -133t-72 -248z" />
<glyph unicode="A" horiz-adv-x="1402" d="M-18 0l555 1460h329l555 -1460h-336l-114 326h-543l-119 -326h-327zM506 559h387l-193 543z" />
<glyph unicode="B" horiz-adv-x="1441" d="M139 0v1458h690q205 0 335 -91t130 -275q0 -102 -53 -181.5t-145 -119.5q266 -76 266 -357q0 -207 -139.5 -320.5t-354.5 -113.5h-729zM451 254h321q125 0 197.5 41t72.5 158q0 119 -76.5 158.5t-209.5 39.5h-305v-397zM451 868h290q242 0 242 170q0 100 -65.5 136 t-176.5 36h-290v-342z" />
<glyph unicode="C" horiz-adv-x="1517" d="M86 731q0 328 195.5 545t521.5 217q260 0 436 -147.5t195 -374.5h-314q-25 121 -109.5 187.5t-213.5 66.5q-133 0 -224.5 -75t-128 -183.5t-36.5 -237.5q0 -225 104 -359t281 -134q293 0 333 327h318q-25 -274 -193 -436t-460 -162q-317 0 -511 210t-194 556z" />
<glyph unicode="D" horiz-adv-x="1517" d="M143 0v1458h590q340 0 523.5 -188.5t183.5 -540.5t-183.5 -540.5t-523.5 -188.5h-590zM461 266h233q424 0 424 463q0 223 -105.5 343t-318.5 120h-233v-926z" />
<glyph unicode="E" horiz-adv-x="1327" d="M141 0v1458h1094v-262h-776v-317h712v-252h-712v-359h790v-268h-1108z" />
<glyph unicode="F" horiz-adv-x="1214" d="M141 0v1458h1028v-268h-708v-338h616v-254h-616v-598h-320z" />
<glyph unicode="G" horiz-adv-x="1554" d="M82 723q0 338 200.5 552t516.5 214q250 0 422 -140.5t200 -369.5h-309q-23 115 -106.5 178.5t-210.5 63.5q-182 0 -287 -132.5t-105 -365.5q0 -238 105.5 -370t296.5 -132q150 0 246 91t102 239h-326v237h613v-788h-203l-31 166q-164 -201 -438 -201q-305 0 -495.5 211 t-190.5 547z" />
<glyph unicode="H" horiz-adv-x="1517" d="M141 0v1458h320v-549h596v549h319v-1458h-319v629h-596v-629h-320z" />
<glyph unicode="I" horiz-adv-x="604" d="M141 0v1458h322v-1458h-322z" />
<glyph unicode="J" horiz-adv-x="1138" d="M53 449v96h295v-45q0 -55 1 -83t10.5 -72t28 -65.5t54 -39t88.5 -17.5q57 0 93 18.5t52.5 56.5t20.5 75t4 94v991h320v-1001q0 -492 -479 -492q-231 0 -359.5 121t-128.5 363z" />
<glyph unicode="K" horiz-adv-x="1478" d="M145 0v1458h316v-606l573 606h404l-572 -575l625 -883h-401l-443 655l-186 -184v-471h-316z" />
<glyph unicode="L" horiz-adv-x="1214" d="M141 0v1458h320v-1184h713v-274h-1033z" />
<glyph unicode="M" horiz-adv-x="1857" d="M141 0v1458h457l340 -1001l332 1001h446v-1458h-301v1036l-358 -1036h-248l-363 1026v-1026h-305z" />
<glyph unicode="N" horiz-adv-x="1517" d="M141 0v1458h326l600 -977v977h307v-1458h-319l-604 979v-979h-310z" />
<glyph unicode="O" horiz-adv-x="1593" d="M78 727q0 346 197.5 556t525.5 210q319 0 517 -212t198 -554t-198 -552t-519 -210q-324 0 -522.5 210t-198.5 552zM401 733q0 -236 106.5 -369t293.5 -135q182 0 286.5 135.5t104.5 368.5q0 229 -106.5 363.5t-288.5 134.5q-180 0 -288 -135t-108 -363z" />
<glyph unicode="P" horiz-adv-x="1366" d="M143 0v1458h629q246 0 390.5 -117.5t144.5 -351.5q0 -229 -143.5 -347t-375.5 -118h-327v-524h-318zM461 776h284q250 0 250 209q0 211 -247 211h-287v-420z" />
<glyph unicode="Q" horiz-adv-x="1593" d="M78 725q0 338 201.5 552t521.5 214q313 0 511.5 -212t198.5 -546q0 -170 -51 -313.5t-145 -231.5l188 -172l-149 -161l-215 194q-131 -84 -353 -84q-317 0 -512.5 209t-195.5 551zM399 727q0 -231 106.5 -368.5t287.5 -137.5q74 0 139 29l-146 127l150 160l158 -144 q98 117 98 338q0 229 -106.5 362.5t-290.5 133.5q-180 0 -288 -135.5t-108 -364.5z" />
<glyph unicode="R" horiz-adv-x="1478" d="M154 0v1458h725q217 0 354 -102.5t137 -311.5q0 -127 -61.5 -222t-169.5 -136q188 -39 215 -340q0 -10 4 -63.5t8 -85t10 -76.5t18.5 -76t28.5 -45h-331q-16 33 -24.5 83t-14.5 129t-6 87q-16 154 -77 213t-214 59h-285v-571h-317zM471 803h303q133 0 208 42t75 165 q0 115 -73 155.5t-196 40.5h-317v-403z" />
<glyph unicode="S" horiz-adv-x="1329" d="M45 487h317q8 -274 330 -274q125 0 198 52t73 143q0 76 -67 110.5t-280 95.5q-35 8 -53 15q-74 20 -102.5 29.5t-91 32t-91 41t-70.5 51t-60.5 68.5t-34 88t-15.5 114q0 199 154 317.5t407 118.5q246 0 402 -116t160 -349h-303q-18 217 -277 217q-111 0 -173 -44 t-62 -122q0 -27 8 -47t30.5 -37.5t45 -29t66.5 -24.5t80 -23.5t101.5 -27t114.5 -30.5q215 -61 320.5 -153.5t105.5 -264.5q0 -125 -51 -218t-138.5 -147.5t-190.5 -80t-220 -25.5q-297 0 -464 136.5t-169 383.5z" />
<glyph unicode="T" horiz-adv-x="1251" d="M27 1186v272h1198v-272h-439v-1186h-321v1186h-438z" />
<glyph unicode="U" horiz-adv-x="1517" d="M133 586v872h320v-872q0 -178 67.5 -264t245.5 -86q172 0 234.5 86t62.5 264v872h319v-876q0 -313 -150.5 -462t-469.5 -149q-324 0 -476.5 150.5t-152.5 464.5z" />
<glyph unicode="V" horiz-adv-x="1290" d="M-16 1458h333l328 -1024l332 1024h332l-486 -1458h-362z" />
<glyph unicode="W" horiz-adv-x="1933" d="M6 1458h322l233 -991l256 991h301l252 -1003l242 1003h315l-393 -1458h-320l-249 995l-246 -995h-326z" />
<glyph unicode="X" horiz-adv-x="1366" d="M-14 0l514 762l-475 696h372l291 -469l293 469h352l-469 -696l512 -762h-383l-319 506l-324 -506h-364z" />
<glyph unicode="Y" horiz-adv-x="1366" d="M-18 1458h364l340 -584l344 584h354l-542 -897v-561h-316v567z" />
<glyph unicode="Z" horiz-adv-x="1327" d="M41 0v260l784 926h-729v272h1153v-244l-790 -940h817v-274h-1235z" />
<glyph unicode="[" horiz-adv-x="681" d="M143 -352v1820h531v-223h-262v-1374h262v-223h-531z" />
<glyph unicode="\" horiz-adv-x="759" d="M-18 1493h249l560 -1528h-252z" />
<glyph unicode="]" horiz-adv-x="681" d="M8 -129h262v1374h-262v223h531v-1820h-531v223z" />
<glyph unicode="^" horiz-adv-x="1228" d="M137 549l361 872h233l361 -872h-244l-240 590l-227 -590h-244z" />
<glyph unicode="_" horiz-adv-x="1024" d="M0 -154h1024v-102h-1024v102z" />
<glyph unicode="`" horiz-adv-x="530" d="M-98 1479h325l193 -293h-207z" />
<glyph unicode="a" d="M59 289q0 68 17.5 119t57.5 85.5t76 57t99.5 37t102.5 21.5t108 16q154 20 206 42.5t52 84.5q0 141 -190 141q-100 0 -147.5 -36t-61.5 -126h-273q25 356 490 356q461 0 461 -344v-456q0 -201 37 -287h-295q-14 41 -21 102q-133 -133 -342 -133q-176 0 -276.5 85 t-100.5 235zM358 301q0 -66 42 -103.5t118 -37.5q117 0 187.5 62.5t70.5 172.5v119q-51 -31 -205 -55q-129 -20 -168 -51q-45 -37 -45 -107z" />
<glyph unicode="b" horiz-adv-x="1251" d="M109 0v1458h288v-530q123 154 333 154h1q211 0 332 -154t121 -389q0 -254 -130 -411t-339 -157q-219 0 -332 162l2 -133h-276zM387 535q0 -154 67.5 -242t186.5 -88q113 0 181.5 90t68.5 242q0 145 -68.5 233t-181.5 88q-117 0 -185.5 -87t-68.5 -236z" />
<glyph unicode="c" d="M74 520q0 256 148.5 411.5t393.5 155.5q211 0 344.5 -107.5t151.5 -291.5h-285q-33 182 -209 182q-119 0 -185 -91t-66 -253q0 -158 64.5 -244.5t180.5 -86.5q190 0 226 213h280q-27 -205 -161 -320t-345 -115q-244 0 -391 149.5t-147 397.5z" />
<glyph unicode="d" horiz-adv-x="1251" d="M68 532q0 250 125.5 401.5t336.5 151.5q98 0 185.5 -40.5t136.5 -118.5v532h289v-1458h-275v135q-104 -164 -319 -164q-219 0 -349 152.5t-130 408.5zM360 532q0 -154 67 -240.5t183 -86.5q121 0 186.5 84.5t65.5 240.5q0 154 -66.5 240t-185 86t-184.5 -86t-66 -238z " />
<glyph unicode="e" d="M68 522q0 246 149.5 405.5t380.5 159.5q240 0 381 -162.5t141 -441.5v-28h-758q2 -137 67 -209t181 -72q154 0 215 154h279q-49 -170 -181 -264.5t-315 -94.5q-244 0 -392 151.5t-148 401.5zM362 639h463q-10 104 -67.5 171t-159.5 67q-96 0 -159.5 -63.5t-76.5 -174.5z " />
<glyph unicode="f" horiz-adv-x="681" d="M0 860v197h172v55q0 186 84 269t279 83q23 0 48 -1t56 -3t47 -2v-213q-90 4 -96 4q-78 0 -103.5 -21.5t-25.5 -86.5v-84h207v-197h-205v-860h-291v860h-172z" />
<glyph unicode="g" horiz-adv-x="1251" d="M72 551q0 242 127 388t336 146q111 0 183.5 -39.5t131.5 -130.5v142h274v-946q0 -260 -129 -382t-391 -122q-453 0 -495 330h288q16 -72 67.5 -104t145.5 -32q137 0 184.5 66.5t49.5 208.5l2 119q-119 -164 -324 -164q-207 0 -328.5 141t-121.5 379zM358 553 q0 -139 67 -222t179.5 -83t178 84t65.5 227q0 141 -65.5 221t-180.5 80t-179.5 -81t-64.5 -226z" />
<glyph unicode="h" horiz-adv-x="1214" d="M113 0v1458h286v-543q125 168 334 168q371 0 371 -391v-692h-291v623q0 109 -39 166t-147 57q-131 0 -179.5 -84t-48.5 -223v-539h-286z" />
<glyph unicode="i" horiz-adv-x="528" d="M119 0v1057h291v-1057h-291zM119 1212v246h291v-246h-291z" />
<glyph unicode="j" horiz-adv-x="569" d="M-39 -145q25 -2 53 -2q45 0 71 8t38 30.5t14 45t2 69.5v1051h291v-1059q0 -209 -74.5 -295t-277.5 -86q-57 0 -117 4v234zM139 1208v250h291v-250h-291z" />
<glyph unicode="k" d="M137 0v1458h285v-780l373 379h342l-398 -391l445 -666h-353l-290 469l-119 -111v-358h-285z" />
<glyph unicode="l" horiz-adv-x="528" d="M119 0v1458h291v-1458h-291z" />
<glyph unicode="m" horiz-adv-x="1855" d="M121 0v1057h276v-146q125 174 336 174q219 0 299 -174q127 174 346 174q174 0 267.5 -101t93.5 -273v-711h-295v631q0 104 -33 160.5t-135 56.5q-203 0 -203 -254v-594h-291v643q0 98 -32.5 152.5t-126.5 54.5q-211 0 -211 -277v-573h-291z" />
<glyph unicode="n" horiz-adv-x="1214" d="M113 0v1057h276v-148q131 176 350 176q170 0 268.5 -98t98.5 -280v-707h-295v616q0 113 -37 171.5t-143 58.5q-229 0 -230 -279v-567h-288z" />
<glyph unicode="o" horiz-adv-x="1251" d="M80 528q0 252 151.5 405.5t399.5 153.5q244 0 392 -153.5t148 -405.5q0 -254 -148.5 -407.5t-396 -153.5t-397 153.5t-149.5 407.5zM371 528q0 -162 67.5 -252t188.5 -90t187.5 91.5t66.5 252.5q0 158 -68.5 247t-189.5 89q-117 0 -184.5 -90t-67.5 -248z" />
<glyph unicode="p" horiz-adv-x="1251" d="M111 -375v1432h274v-131q115 160 327 160h1q213 -1 342 -154.5t129 -409.5q0 -248 -126 -398.5t-333 -150.5q-213 0 -326 158v-506h-288zM389 526.5q0 -153.5 67.5 -239.5t186.5 -86q117 0 183.5 86t66.5 235q0 154 -67.5 242t-184.5 88q-119 0 -185.5 -86t-66.5 -239.5z " />
<glyph unicode="q" horiz-adv-x="1251" d="M68 522q0 256 129 409.5t344 153.5q219 0 325 -159v131h277v-1432h-289v508q-117 -160 -326 -160q-211 0 -335.5 149.5t-124.5 399.5zM360 520q0 -152 66 -235.5t184.5 -83.5t185 87t66.5 242q0 154 -67.5 239t-190.5 85q-113 0 -178.5 -89t-65.5 -245z" />
<glyph unicode="r" horiz-adv-x="796" d="M115 0v1057h276v-195q104 219 342 219q21 0 64 -6v-268q-61 12 -113 12q-143 0 -210.5 -91t-67.5 -245v-483h-291z" />
<glyph unicode="s" horiz-adv-x="1099" d="M59 344h277q14 -176 225 -176q88 0 140.5 36t52.5 95t-47.5 84t-174.5 53q-10 2 -16 4q-14 4 -63.5 14.5t-68.5 15.5t-63.5 17.5t-64.5 23.5t-54 28.5t-50.5 38t-36 48t-26.5 62.5t-7 76q0 156 121 239.5t342 83.5q199 0 326 -81.5t133 -255.5h-271q-12 80 -60 112.5 t-141 32.5q-78 0 -120.5 -27.5t-42.5 -76.5q0 -57 49 -80t176 -49q23 -4 33 -7q74 -14 117.5 -25.5t107 -37t98.5 -57t61.5 -85t26.5 -122.5q0 -166 -129 -262.5t-354 -96.5q-215 0 -354.5 92.5t-141.5 282.5z" />
<glyph unicode="t" horiz-adv-x="720" d="M12 860v197h176v319h289v-319h215v-197h-215v-498q0 -47 2 -68.5t14.5 -44t38 -29.5t72.5 -7q53 0 88 4v-221q-106 -8 -176 -8q-190 0 -259 66.5t-69 256.5v549h-176z" />
<glyph unicode="u" horiz-adv-x="1214" d="M113 346v711h293v-604q0 -59 5 -95t21.5 -73t54 -54.5t97.5 -17.5q229 0 229 299v545h289v-1057h-277v150q-123 -180 -344 -181q-174 0 -271 95.5t-97 281.5z" />
<glyph unicode="v" horiz-adv-x="1064" d="M10 1057h307l226 -721l225 721h289l-359 -1057h-325z" />
<glyph unicode="w" horiz-adv-x="1667" d="M10 1057h309l197 -719l178 719h281l184 -715l197 715h297l-334 -1057h-299l-189 711l-182 -711h-301z" />
<glyph unicode="x" horiz-adv-x="1099" d="M-4 0l385 557l-350 500h331l189 -283l186 283h322l-348 -494l391 -563h-332l-223 342l-221 -342h-330z" />
<glyph unicode="y" horiz-adv-x="1062" d="M-18 1057h313l242 -719l233 719h301l-389 -1053q-29 -80 -42 -111.5t-41 -89t-51.5 -80t-63.5 -51t-90 -39t-115 -10.5q-53 0 -195 2v240h141q72 0 110 37t38 104q0 16 -8 41z" />
<glyph unicode="z" horiz-adv-x="1062" d="M45 0v221l559 613h-516v223h893v-211l-557 -617h594v-229h-973z" />
<glyph unicode="{" horiz-adv-x="681" d="M-2 494v131q121 14 164 71.5t43 186.5v110q0 256 103.5 358.5t367.5 118.5v-131q-121 -12 -162 -74.5t-41 -207.5v-117q0 -176 -68.5 -267t-236.5 -114q172 -16 238.5 -113.5t66.5 -267.5v-119q0 -141 39 -204.5t164 -75.5v-129q-264 12 -367.5 115.5t-103.5 357.5v74 q0 162 -34 221t-173 76z" />
<glyph unicode="|" horiz-adv-x="456" d="M104 -438v2048h248v-2048h-248z" />
<glyph unicode="}" horiz-adv-x="681" d="M-2 -221q125 12 164 75.5t39 204.5v119q0 170 66.5 267.5t238.5 113.5q-168 23 -236.5 114t-68.5 267v117q0 145 -41 207.5t-162 74.5v131q264 -16 367.5 -118.5t103.5 -358.5v-110q0 -129 43 -186.5t164 -71.5v-131q-139 -16 -173 -76t-34 -221v-74 q0 -254 -103.5 -357.5t-367.5 -115.5v129z" />
<glyph unicode="~" horiz-adv-x="1228" d="M55 348q6 70 25.5 130.5t53.5 115.5t92.5 87t135.5 32q33 0 73 -7.5t65.5 -15.5t73 -24.5t65.5 -22.5q203 -68 256 -68q98 0 123 138h160q-42 -363 -314 -363q-43 0 -106.5 14.5t-105.5 29t-120.5 43t-99.5 34.5q-66 20 -92 21q-53 0 -85 -43t-40 -101h-160z" />
<glyph unicode="&#xa3;" horiz-adv-x="1138" d="M37 635v168h131q-88 125 -88 258q0 186 141 301t371 115q242 0 375 -128t139 -368h-287q-4 254 -223 254q-88 0 -145.5 -53.5t-57.5 -134.5q0 -47 30 -121t60 -123h273v-168h-217q23 -76 22 -113q0 -90 -44 -155.5t-130 -139.5q96 43 184 43q55 0 144 -20q94 -25 131 -25 q113 0 188 86l123 -211q-127 -127 -330 -127q-90 0 -247 47q-119 33 -185 33q-102 0 -219 -82l-125 187q6 4 33 26.5t34 28.5t29.5 26.5t29.5 28.5t25.5 28.5t24.5 33t17.5 34t15.5 39t8 40t4 46.5q0 68 -34 146h-201z" />
<glyph unicode="&#xa7;" horiz-adv-x="1138" d="M23 639q0 109 58 185.5t161 109.5q-88 90 -88 207q0 152 120.5 248t311 96t307.5 -105.5t119 -279.5h-258q-12 168 -170 168q-68 0 -110 -35t-42 -90q0 -16 2 -28.5t9.5 -26t13.5 -22.5t23.5 -21.5t29.5 -20.5t41 -23.5t50.5 -26.5t63.5 -32.5t74 -38.5q10 -6 62.5 -32.5 t69 -35t61.5 -35t62.5 -43t48 -47t43 -57t23.5 -63.5t11 -78q0 -102 -57 -182t-156 -115q111 -100 111 -233q0 -162 -123 -263.5t-320 -101.5q-211 0 -331.5 108.5t-122.5 299.5h260q14 -182 194 -183q74 0 118 37t44 98q0 68 -68.5 117t-279.5 154q-182 90 -244 141 q-123 100 -122 250zM274 666q0 -29 10.5 -51.5t36 -41t39 -26.5t48.5 -27l348 -180q49 4 79.5 39t30.5 86q0 55 -31.5 87t-93.5 62l-356 187q-111 -33 -111 -135z" />
<glyph unicode="&#xa9;" horiz-adv-x="1638" d="M39 731.5q0 317.5 224 541.5t541.5 224t543 -224t225.5 -541.5t-224.5 -542t-542 -224.5t-542.5 224.5t-225 542zM172 731q0 -262 185.5 -447.5t447.5 -185.5t448.5 185.5t186.5 447.5t-186.5 447.5t-448.5 185.5t-447.5 -185.5t-185.5 -447.5zM397 731q0 201 115 329 t295 128q158 0 265.5 -93.5t117.5 -238.5h-189q-12 76 -60 119t-122 43q-90 0 -141 -76t-51 -207q0 -133 54 -208.5t150 -75.5q76 0 116 38.5t57 116.5h188q-16 -145 -117.5 -235t-251.5 -90q-184 0 -305 128t-121 322z" />
<glyph unicode="&#xab;" horiz-adv-x="909" d="M86 410v268l324 252v-242l-185 -141l185 -146v-249zM489 406v272l320 252v-246l-180 -141l180 -142v-247z" />
<glyph unicode="&#xac;" horiz-adv-x="1228" d="M82 631v229h1065v-657h-232v428h-833z" />
<glyph unicode="&#xad;" horiz-adv-x="833" d="M109 428v260h616v-260h-616z" />
<glyph unicode="&#xae;" horiz-adv-x="819" d="M27 1112q0 158 111.5 269.5t269 111.5t270.5 -111.5t113 -269.5t-113 -270.5t-270.5 -112.5t-269 112.5t-111.5 270.5zM92 1112q0 -131 92 -223t223.5 -92t223.5 92t92 223t-92 223t-223.5 92t-223.5 -92t-92 -223zM248 901v424h151q188 0 189 -125q0 -74 -78 -100 q41 -16 55.5 -44t16.5 -98q0 -33 10 -57h-98q-8 16 -11 60q-2 61 -19.5 79.5t-74.5 18.5h-41v-158h-100zM348 1137h47q92 0 92 55t-92 55h-47v-110z" />
<glyph unicode="&#xb0;" horiz-adv-x="819" d="M76 1108q0 137 97 235.5t236.5 98.5t236.5 -98.5t97 -235.5t-97 -235.5t-236.5 -98.5t-236.5 98.5t-97 235.5zM262 1108q0 -61 43 -104t104.5 -43t104.5 43t43 104t-43 105t-104.5 44t-104.5 -44t-43 -105z" />
<glyph unicode="&#xb1;" horiz-adv-x="1228" d="M82 -35v228h1065v-228h-1065zM82 553v227h412v318h241v-318h412v-227h-412v-311h-241v311h-412z" />
<glyph unicode="&#xb5;" horiz-adv-x="1214" d="M117 -375v1432h289v-422v-52v-57.5t1 -56.5t5 -57.5t10 -51t16.5 -49t25.5 -40t35.5 -33t48 -19.5t60.5 -8q205 0 205 422v424h289v-1057h-260v147q-51 -84 -100.5 -123.5t-123.5 -39.5q-137 0 -227 116v-475h-274z" />
<glyph unicode="&#xb6;" horiz-adv-x="1269" d="M49 961q0 242 146.5 369.5t386.5 127.5h612v-166h-111v-1667h-202v1667h-222v-1667h-202v881q-188 12 -298 136t-110 319z" />
<glyph unicode="&#xb7;" horiz-adv-x="569" d="M123 428v320h323v-320h-323z" />
<glyph unicode="&#xbb;" horiz-adv-x="909" d="M100 158v239l183 144l-183 141v250l320 -254v-270zM500 154v241l186 144l-186 147v248l323 -258v-270z" />
<glyph unicode="&#xf7;" horiz-adv-x="1228" d="M82 426v256h1065v-256h-1065zM487 16v275h254v-275h-254zM487 817v275h254v-275h-254z" />
<glyph unicode="&#x192;" horiz-adv-x="1138" d="M-12 -346l37 217q31 -2 61 -2q88 0 123 29.5t55 138.5l123 651h-186l35 193h188l41 223q37 201 133 283.5t295 82.5q51 0 149 -6l-41 -217q-43 4 -77 4q-86 0 -116 -38.5t-48 -131.5l-37 -200h201l-35 -193h-203l-117 -633q-41 -229 -131 -317t-317 -88q-68 0 -133 4z " />
<glyph unicode="&#x401;" horiz-adv-x="1327" d="M141 0v1458h1094v-262h-776v-317h712v-252h-712v-359h790v-268h-1108zM336 1581v238h272v-238h-272zM764 1581v238h272v-238h-272z" />
<glyph unicode="&#x402;" horiz-adv-x="1593" d="M27 1186v272h1177v-272h-479v-438q115 160 324 159q217 0 360 -158.5t143 -410.5q0 -270 -151.5 -451.5t-366.5 -181.5q-106 0 -180 25v250q33 -16 113 -17q121 0 191.5 96.5t70.5 278.5q0 154 -66.5 237.5t-185.5 83.5t-185.5 -86t-66.5 -239v-334h-322v1186h-376z" />
<glyph unicode="&#x403;" d="M141 0v1458h1016v-272h-696v-1186h-320zM391 1552l182 295h324l-305 -295h-201z" />
<glyph unicode="&#x404;" horiz-adv-x="1517" d="M86 731q0 328 195.5 545t521.5 217q252 0 425 -138t202 -354h-318q-31 106 -114 165t-201 59q-156 0 -248 -94.5t-125 -245.5h524v-252h-534q23 -184 123 -290.5t256 -106.5q268 0 325 278h320q-37 -254 -203 -401.5t-444 -147.5q-317 0 -511 210t-194 556z" />
<glyph unicode="&#x405;" horiz-adv-x="1329" d="M45 487h317q8 -274 330 -274q125 0 198 52t73 143q0 76 -67 110.5t-280 95.5q-35 8 -53 15q-74 20 -102.5 29.5t-91 32t-91 41t-70.5 51t-60.5 68.5t-34 88t-15.5 114q0 199 154 317.5t407 118.5q246 0 402 -116t160 -349h-303q-18 217 -277 217q-111 0 -173 -44 t-62 -122q0 -27 8 -47t30.5 -37.5t45 -29t66.5 -24.5t80 -23.5t101.5 -27t114.5 -30.5q215 -61 320.5 -153.5t105.5 -264.5q0 -125 -51 -218t-138.5 -147.5t-190.5 -80t-220 -25.5q-297 0 -464 136.5t-169 383.5z" />
<glyph unicode="&#x406;" horiz-adv-x="604" d="M141 0v1458h322v-1458h-322z" />
<glyph unicode="&#x407;" horiz-adv-x="604" d="M-49 1581v238h272v-238h-272zM141 0v1458h322v-1458h-322zM379 1581v238h272v-238h-272z" />
<glyph unicode="&#x408;" horiz-adv-x="1138" d="M53 449v96h295v-45q0 -55 1 -83t10.5 -72t28 -65.5t54 -39t88.5 -17.5q57 0 93 18.5t52.5 56.5t20.5 75t4 94v991h320v-1001q0 -492 -479 -492q-231 0 -359.5 121t-128.5 363z" />
<glyph unicode="&#x409;" horiz-adv-x="2158" d="M27 -4v258q49 -25 112 -25q76 0 117 69t47 273l25 887h975v-549h288q236 0 377 -107.5t141 -332.5q0 -233 -144 -351t-390 -118h-592v1186h-350l-21 -619q-20 -596 -405 -596q-106 0 -180 25zM1303 272h247q248 0 248 193q0 92 -64.5 128t-185.5 36h-245v-357z" />
<glyph unicode="&#x40a;" horiz-adv-x="2158" d="M141 0v1458h320v-549h522v549h320v-549h288q236 0 377 -107.5t141 -332.5q0 -233 -144 -351t-390 -118h-592v629h-522v-629h-320zM1303 272h247q248 0 248 193q0 92 -64.5 128t-185.5 36h-245v-357z" />
<glyph unicode="&#x40b;" horiz-adv-x="1593" d="M27 1186v272h1177v-272h-479v-309q199 41 293 41q252 0 372.5 -118t120.5 -392v-408h-319v412q0 131 -52.5 185t-174.5 54q-51 0 -240 -33v-618h-322v1186h-376z" />
<glyph unicode="&#x40c;" horiz-adv-x="1478" d="M145 0v1458h316v-606l573 606h404l-572 -575l625 -883h-401l-443 655l-186 -184v-471h-316zM514 1552l182 295h324l-305 -295h-201z" />
<glyph unicode="&#x40e;" horiz-adv-x="1366" d="M14 1458h355l329 -768l324 768h342l-492 -1073q-104 -229 -208.5 -320.5t-276.5 -91.5q-96 0 -178 33v270q78 -33 153 -32q70 0 109 35.5t39 89.5q0 18 -4 36.5t-12.5 41t-14.5 36t-19.5 40t-17.5 34.5zM391 1851h115q27 -135 219 -135t219 135h115q0 -295 -334 -295 t-334 295z" />
<glyph unicode="&#x40f;" horiz-adv-x="1517" d="M141 0v1458h320v-1186h596v1186h319v-1458h-463v-375h-309v375h-463z" />
<glyph unicode="&#x410;" horiz-adv-x="1402" d="M-18 0l555 1460h329l555 -1460h-336l-114 326h-543l-119 -326h-327zM506 559h387l-193 543z" />
<glyph unicode="&#x411;" horiz-adv-x="1441" d="M145 0v1458h1082v-264h-764v-260h381q231 0 374.5 -118t143.5 -347q0 -233 -144.5 -351t-390.5 -118h-682zM463 262h340q248 0 248 211q0 209 -250 209h-338v-420z" />
<glyph unicode="&#x412;" horiz-adv-x="1441" d="M139 0v1458h690q205 0 335 -91t130 -275q0 -102 -53 -181.5t-145 -119.5q266 -76 266 -357q0 -207 -139.5 -320.5t-354.5 -113.5h-729zM451 254h321q125 0 197.5 41t72.5 158q0 119 -76.5 158.5t-209.5 39.5h-305v-397zM451 868h290q242 0 242 170q0 100 -65.5 136 t-176.5 36h-290v-342z" />
<glyph unicode="&#x413;" d="M141 0v1458h1016v-272h-696v-1186h-320z" />
<glyph unicode="&#x414;" horiz-adv-x="1593" d="M16 272h111q125 168 179 400.5t54 564.5v221h1039v-1186h162v-647h-310v375h-925v-375h-310v647zM483 272h596v926h-401v-24q0 -547 -195 -902z" />
<glyph unicode="&#x415;" horiz-adv-x="1327" d="M141 0v1458h1094v-262h-776v-317h712v-252h-712v-359h790v-268h-1108z" />
<glyph unicode="&#x416;" horiz-adv-x="2158" d="M-18 0l583 862l-530 596h385l506 -596v596h307v-596l506 596h385l-531 -596l584 -862h-397l-389 635l-158 -178v-457h-307v457l-158 178l-391 -635h-395z" />
<glyph unicode="&#x417;" horiz-adv-x="1329" d="M43 487h317q4 -139 90.5 -206.5t225.5 -67.5q111 0 181.5 66.5t70.5 166.5q0 205 -275 205h-110v217q25 -2 86 -2q264 0 264 199q0 84 -59.5 130t-159.5 46q-119 0 -190.5 -56.5t-80.5 -160.5h-303q4 231 166 348t410 117q225 0 371.5 -111.5t146.5 -292.5 q0 -109 -61.5 -189.5t-159.5 -102.5q121 -18 198.5 -112.5t77.5 -231.5q0 -211 -163.5 -346.5t-409.5 -135.5q-297 0 -464 136.5t-169 383.5z" />
<glyph unicode="&#x418;" horiz-adv-x="1517" d="M141 0v1458h320v-1009h6l549 1009h360v-1458h-319v1012h-6l-549 -1012h-361z" />
<glyph unicode="&#x419;" horiz-adv-x="1517" d="M141 0v1458h320v-1009h6l549 1009h360v-1458h-319v1012h-6l-549 -1012h-361zM426 1851h115q27 -135 219 -135t219 135h115q0 -295 -334 -295t-334 295z" />
<glyph unicode="&#x41a;" horiz-adv-x="1478" d="M145 0v1458h316v-606l573 606h404l-572 -575l625 -883h-401l-443 655l-186 -184v-471h-316z" />
<glyph unicode="&#x41b;" horiz-adv-x="1478" d="M27 -4v258q49 -25 112 -25q76 0 117 69t47 273l25 887h1015v-1458h-319v1186h-391l-21 -619q-20 -596 -405 -596q-106 0 -180 25z" />
<glyph unicode="&#x41c;" horiz-adv-x="1857" d="M141 0v1458h457l340 -1001l332 1001h446v-1458h-301v1036l-358 -1036h-248l-363 1026v-1026h-305z" />
<glyph unicode="&#x41d;" horiz-adv-x="1517" d="M141 0v1458h320v-549h596v549h319v-1458h-319v629h-596v-629h-320z" />
<glyph unicode="&#x41e;" horiz-adv-x="1593" d="M78 727q0 346 197.5 556t525.5 210q319 0 517 -212t198 -554t-198 -552t-519 -210q-324 0 -522.5 210t-198.5 552zM401 733q0 -236 106.5 -369t293.5 -135q182 0 286.5 135.5t104.5 368.5q0 229 -106.5 363.5t-288.5 134.5q-180 0 -288 -135t-108 -363z" />
<glyph unicode="&#x41f;" horiz-adv-x="1517" d="M141 0v1458h1235v-1458h-319v1186h-596v-1186h-320z" />
<glyph unicode="&#x420;" horiz-adv-x="1366" d="M143 0v1458h629q246 0 390.5 -117.5t144.5 -351.5q0 -229 -143.5 -347t-375.5 -118h-327v-524h-318zM461 776h284q250 0 250 209q0 211 -247 211h-287v-420z" />
<glyph unicode="&#x421;" horiz-adv-x="1517" d="M86 731q0 328 195.5 545t521.5 217q260 0 436 -147.5t195 -374.5h-314q-25 121 -109.5 187.5t-213.5 66.5q-133 0 -224.5 -75t-128 -183.5t-36.5 -237.5q0 -225 104 -359t281 -134q293 0 333 327h318q-25 -274 -193 -436t-460 -162q-317 0 -511 210t-194 556z" />
<glyph unicode="&#x422;" horiz-adv-x="1251" d="M27 1186v272h1198v-272h-439v-1186h-321v1186h-438z" />
<glyph unicode="&#x423;" horiz-adv-x="1366" d="M14 1458h355l329 -768l324 768h342l-492 -1073q-104 -229 -208.5 -320.5t-276.5 -91.5q-96 0 -178 33v270q78 -33 153 -32q70 0 109 35.5t39 89.5q0 18 -4 36.5t-12.5 41t-14.5 36t-19.5 40t-17.5 34.5z" />
<glyph unicode="&#x424;" horiz-adv-x="1736" d="M78 745q0 260 171 410t462 160v143h315v-143q291 -10 462 -160t171 -410q0 -268 -172 -421.5t-461 -163.5v-160h-315v160q-289 10 -461 163.5t-172 421.5zM387 745q0 -150 86 -245t238 -101v684q-158 -6 -241 -94t-83 -244zM1026 399q152 6 239 101t87 245q0 156 -84 244 t-242 94v-684z" />
<glyph unicode="&#x425;" horiz-adv-x="1366" d="M-14 0l514 762l-475 696h372l291 -469l293 469h352l-469 -696l512 -762h-383l-319 506l-324 -506h-364z" />
<glyph unicode="&#x426;" horiz-adv-x="1550" d="M137 0v1458h320v-1186h596v1186h319v-1186h162v-647h-309v375h-1088z" />
<glyph unicode="&#x427;" horiz-adv-x="1366" d="M80 1071v387h319v-391q0 -131 52.5 -185.5t175.5 -54.5q100 0 288 33v598h320v-1458h-320v602q-198 -41 -313 -41q-256 0 -389 120t-133 390z" />
<glyph unicode="&#x428;" horiz-adv-x="2201" d="M137 0v1458h320v-1186h485v1186h320v-1186h485v1186h319v-1458h-1929z" />
<glyph unicode="&#x429;" horiz-adv-x="2236" d="M137 0v1458h320v-1186h485v1186h320v-1186h485v1186h319v-1186h162v-647h-309v375h-1782z" />
<glyph unicode="&#x42a;" horiz-adv-x="1650" d="M27 1184v274h712v-524h344q231 0 375 -118t144 -347q0 -233 -144.5 -351t-390.5 -118h-645v1184h-395zM739 262h303q248 0 248 211q0 209 -250 209h-301v-420z" />
<glyph unicode="&#x42b;" horiz-adv-x="1857" d="M141 0v1458h318v-524h266q231 0 374.5 -118t143.5 -347q0 -233 -144.5 -351t-389.5 -118h-568zM459 262h225q248 0 248 211q0 209 -250 209h-223v-420zM1399 0v1458h319v-1458h-319z" />
<glyph unicode="&#x42c;" horiz-adv-x="1366" d="M137 0v1458h318v-524h344q231 0 374.5 -118t143.5 -347q0 -233 -144.5 -351t-390.5 -118h-645zM455 262h303q248 0 248 211q0 209 -250 209h-301v-420z" />
<glyph unicode="&#x42d;" horiz-adv-x="1517" d="M78 514h319q57 -279 326 -278q156 0 256 106.5t123 290.5h-535v252h525q-33 152 -125.5 246t-247.5 94q-119 0 -202 -58.5t-114 -165.5h-317q29 215 202 353.5t425 138.5q326 0 521.5 -217t195.5 -545q0 -346 -194 -556t-511 -210q-279 0 -444.5 147.5t-202.5 401.5z" />
<glyph unicode="&#x42e;" horiz-adv-x="2084" d="M141 0v1458h320v-559h235q45 274 219.5 434t434.5 160q293 0 475 -212t182 -554q0 -340 -182.5 -551t-476.5 -211q-279 0 -458 184.5t-202 489.5h-227v-639h-320zM1008 733q0 -236 91 -369t251 -135q156 0 244.5 135.5t88.5 368.5q0 231 -91 364.5t-246.5 133.5 t-246.5 -135t-91 -363z" />
<glyph unicode="&#x42f;" horiz-adv-x="1478" d="M6 0l453 590q-152 39 -243 146.5t-91 275.5q0 221 142.5 333.5t359.5 112.5h714v-1458h-317v571h-190l-426 -571h-402zM438 1010q0 -123 75 -165t208 -42h303v403h-317q-123 0 -196 -41t-73 -155z" />
<glyph unicode="&#x430;" d="M59 289q0 68 17.5 119t57.5 85.5t76 57t99.5 37t102.5 21.5t108 16q154 20 206 42.5t52 84.5q0 141 -190 141q-100 0 -147.5 -36t-61.5 -126h-273q25 356 490 356q461 0 461 -344v-456q0 -201 37 -287h-295q-14 41 -21 102q-133 -133 -342 -133q-176 0 -276.5 85 t-100.5 235zM358 301q0 -66 42 -103.5t118 -37.5q117 0 187.5 62.5t70.5 172.5v119q-51 -31 -205 -55q-129 -20 -168 -51q-45 -37 -45 -107z" />
<glyph unicode="&#x431;" horiz-adv-x="1251" d="M104 618q0 111 7.5 196t32 190.5t68.5 181.5t126 141.5t192 93.5q43 12 124 20.5t129 22t61 39.5h276q-10 -78 -43 -134t-73.5 -88t-108.5 -54.5t-123 -30.5t-143 -16q-328 -31 -371 -422h6q45 125 148.5 212t269.5 87q207 0 346 -149.5t139 -391.5q0 -250 -148.5 -398.5 t-402.5 -148.5q-137 0 -239.5 56.5t-159.5 152.5t-85 207t-28 233zM395 516q0 -158 64.5 -243t177.5 -85t176.5 86t63.5 244q0 154 -64.5 239t-179.5 85q-109 0 -173.5 -86t-64.5 -240z" />
<glyph unicode="&#x432;" d="M106 0v1057h609q150 0 244 -66.5t94 -199.5q0 -152 -144 -218q193 -55 193 -258q0 -150 -101.5 -232.5t-257.5 -82.5h-637zM393 188h215q90 0 141.5 29t51.5 111q0 84 -55.5 112.5t-149.5 28.5h-203v-281zM393 633h193q172 0 172 121q0 70 -46 94t-126 24h-193v-239z" />
<glyph unicode="&#x433;" horiz-adv-x="927" d="M115 0v1057h798v-223h-510v-834h-288z" />
<glyph unicode="&#x434;" horiz-adv-x="1286" d="M14 223h127q51 98 92 286.5t41 362.5v185h844v-834h137v-534h-272v311h-696v-311h-273v534zM426 223h403v619h-284v-27q0 -154 -38 -325t-81 -267z" />
<glyph unicode="&#x435;" d="M68 522q0 246 149.5 405.5t380.5 159.5q240 0 381 -162.5t141 -441.5v-28h-758q2 -137 67 -209t181 -72q154 0 215 154h279q-49 -170 -181 -264.5t-315 -94.5q-244 0 -392 151.5t-148 401.5zM362 639h463q-10 104 -67.5 171t-159.5 67q-96 0 -159.5 -63.5t-76.5 -174.5z " />
<glyph unicode="&#x436;" horiz-adv-x="1683" d="M-6 0l407 655l-360 402h332l332 -420v420h274v-420l332 420h331l-366 -408l414 -649h-342l-256 444l-113 -127v-317h-274v317l-113 127l-256 -444h-342z" />
<glyph unicode="&#x437;" horiz-adv-x="1099" d="M45 344h277q16 -176 225 -176q94 0 141 39t47 102q0 147 -182 148h-113v182h76q98 0 149.5 30.5t51.5 106.5q0 51 -43 85t-123 34q-92 0 -140.5 -33t-60.5 -112h-270q6 172 141 254.5t336 82.5q442 0 442 -284q0 -86 -59 -153.5t-131 -80.5v-4q94 -12 159.5 -69.5 t65.5 -182.5q0 -168 -133 -256t-360 -88q-215 0 -354.5 92.5t-141.5 282.5z" />
<glyph unicode="&#x438;" horiz-adv-x="1214" d="M115 0v1057h278v-715l377 715h330v-1057h-279v715l-377 -715h-329z" />
<glyph unicode="&#x439;" horiz-adv-x="1214" d="M115 0v1057h278v-715l377 715h330v-1057h-279v715l-377 -715h-329zM272 1458h115q27 -135 219 -135t219 135h115q0 -295 -334 -295t-334 295z" />
<glyph unicode="&#x43a;" d="M119 0v1057h284v-418l388 418h342l-410 -410l467 -647h-352l-306 455l-129 -131v-324h-284z" />
<glyph unicode="&#x43b;" horiz-adv-x="1214" d="M16 -12v231q51 -10 82 -10q125 0 131 219l17 629h848v-1057h-289v834h-279l-12 -373q-2 -61 -4 -97t-11.5 -95.5t-21.5 -95.5t-37.5 -80t-59.5 -67.5t-87 -41t-119 -17.5q-106 0 -158 21z" />
<glyph unicode="&#x43c;" horiz-adv-x="1478" d="M115 0v1057h422l198 -768h8l199 768h422v-1057h-274v803h-7l-206 -803h-275l-207 803h-6v-803h-274z" />
<glyph unicode="&#x43d;" horiz-adv-x="1214" d="M115 0v1057h288v-383h408v383h289v-1057h-289v444h-408v-444h-288z" />
<glyph unicode="&#x43e;" horiz-adv-x="1251" d="M80 528q0 252 151.5 405.5t399.5 153.5q244 0 392 -153.5t148 -405.5q0 -254 -148.5 -407.5t-396 -153.5t-397 153.5t-149.5 407.5zM371 528q0 -162 67.5 -252t188.5 -90t187.5 91t66.5 253q0 158 -69 247t-189 89q-117 0 -184.5 -90t-67.5 -248z" />
<glyph unicode="&#x43f;" horiz-adv-x="1214" d="M115 0v1057h985v-1057h-289v834h-408v-834h-288z" />
<glyph unicode="&#x440;" horiz-adv-x="1251" d="M111 -375v1432h274v-131q115 160 328 159.5t342 -154t129 -409.5q0 -248 -126 -398.5t-333 -150.5q-213 0 -326 158v-506h-288zM389 526.5q0 -153.5 67.5 -239.5t186.5 -86q117 0 183.5 86t66.5 235q0 154 -67.5 242t-184.5 88q-119 0 -185.5 -86t-66.5 -239.5z" />
<glyph unicode="&#x441;" d="M74 520q0 256 148.5 411.5t393.5 155.5q211 0 344.5 -107.5t151.5 -291.5h-285q-33 182 -209 182q-119 0 -185 -91t-66 -253q0 -158 64.5 -244.5t180.5 -86.5q190 0 226 213h280q-27 -205 -161 -320t-345 -115q-244 0 -391 149.5t-147 397.5z" />
<glyph unicode="&#x442;" horiz-adv-x="1024" d="M20 834v223h986v-223h-349v-834h-288v834h-349z" />
<glyph unicode="&#x443;" horiz-adv-x="1062" d="M-18 1057h313l242 -719l233 719h301l-389 -1053q-29 -80 -42 -111.5t-41 -89t-51.5 -80t-63.5 -51t-90 -39t-115 -10.5q-53 0 -195 2v240h141q72 0 110 37t38 104q0 16 -8 41z" />
<glyph unicode="&#x444;" horiz-adv-x="1732" d="M74 545q0 250 110.5 396t298.5 146q86 0 147.5 -30.5t86.5 -77.5h6v479h287v-479h6q25 47 86 77.5t147 30.5q188 0 299 -146t111 -396q0 -248 -102.5 -411t-321.5 -163q-63 0 -124.5 29t-94.5 70h-6v-445h-287v445h-6q-33 -41 -94.5 -70t-124.5 -29q-219 0 -321.5 163 t-102.5 411zM360 539q0 -344 205 -344q61 0 105.5 30.5t52.5 71.5v455q-18 57 -65.5 84.5t-100.5 27.5q-197 0 -197 -325zM1010 297q8 -41 52 -71.5t105 -30.5q205 0 205 344q0 326 -196 325q-53 0 -100.5 -27.5t-65.5 -84.5v-455z" />
<glyph unicode="&#x445;" horiz-adv-x="1099" d="M-4 0l385 557l-350 500h331l189 -283l186 283h322l-348 -494l391 -563h-332l-223 342l-221 -342h-330z" />
<glyph unicode="&#x446;" horiz-adv-x="1234" d="M109 0v1057h288v-834h391v834h289v-834h133v-534h-272v311h-829z" />
<glyph unicode="&#x447;" d="M82 735v322h289v-262q0 -117 33.5 -162t127.5 -45q129 -1 242 30v439h289v-1057h-289v416q-188 -47 -338 -47q-172 0 -263 97t-91 269z" />
<glyph unicode="&#x448;" horiz-adv-x="1726" d="M115 0v1057h288v-834h316v834h289v-834h315v834h289v-1057h-1497z" />
<glyph unicode="&#x449;" horiz-adv-x="1751" d="M109 0v1057h288v-834h310v834h288v-834h310v834h288v-834h133v-534h-272v311h-1345z" />
<glyph unicode="&#x44a;" horiz-adv-x="1327" d="M16 834v223h602v-363h281q168 0 277.5 -90t109.5 -256q0 -170 -109.5 -259t-289.5 -89h-555v834h-316zM618 201h199q176 0 176 147q0 74 -49 112t-129 38h-197v-297z" />
<glyph unicode="&#x44b;" horiz-adv-x="1517" d="M96 0v1057h287v-363h229q168 0 277.5 -90t109.5 -256q0 -170 -109.5 -259t-289.5 -89h-504zM383 201h147q176 0 177 147q0 74 -49.5 112t-129.5 38h-145v-297zM1133 0v1057h288v-1057h-288z" />
<glyph unicode="&#x44c;" horiz-adv-x="1099" d="M104 0v1057h287v-363h281q168 0 277.5 -90t109.5 -256q0 -170 -109.5 -259t-290.5 -89h-555zM391 201h199q176 0 176 147q0 74 -49 112t-129 38h-197v-297z" />
<glyph unicode="&#x44d;" d="M66 365h282q47 -170 215 -170q102 0 165 67.5t77 192.5h-340v184h334q-20 111 -83 171t-159 60q-164 0 -203 -157h-288q27 174 157.5 274t335.5 100q246 0 394.5 -155.5t148.5 -411.5q0 -248 -147.5 -397.5t-391.5 -149.5q-199 0 -330 102.5t-167 289.5z" />
<glyph unicode="&#x44e;" horiz-adv-x="1712" d="M115 0v1057h288v-402h209q33 201 167 316.5t343 115.5q236 0 373 -152.5t137 -406.5q0 -256 -138 -408.5t-376 -152.5q-221 0 -356.5 130.5t-155.5 353.5h-203v-451h-288zM893 528q0 -164 58.5 -253t166.5 -89q106 0 164.5 90t58.5 254q0 160 -59 248t-168 88 q-104 0 -162.5 -89t-58.5 -249z" />
<glyph unicode="&#x44f;" d="M-12 0l350 416q-117 18 -192.5 105t-75.5 214q0 139 98 230.5t252 91.5h639v-1057h-289v391h-123l-303 -391h-356zM365 725q0 -66 37.5 -95.5t136.5 -29.5h231v248h-231q-96 0 -135 -30t-39 -93z" />
<glyph unicode="&#x451;" d="M68 522q0 246 149.5 405.5t380.5 159.5q240 0 381 -162.5t141 -441.5v-28h-758q2 -137 67 -209t181 -72q154 0 215 154h279q-49 -170 -181 -264.5t-315 -94.5q-244 0 -392 151.5t-148 401.5zM238 1221v237h272v-237h-272zM362 639h463q-10 104 -67.5 171t-159.5 67 q-96 0 -159.5 -63.5t-76.5 -174.5zM668 1221v237h272v-237h-272z" />
<glyph unicode="&#x452;" d="M2 891v196h111v371h286v-371h508v-196h-508v-262q125 168 334 168q371 0 371 -391v-230q0 -539 -598 -561v233q160 18 233.5 91t73.5 256v141q0 109 -39 166t-147 57q-131 0 -179.5 -84t-48.5 -223v-252h-286v891h-111z" />
<glyph unicode="&#x453;" horiz-adv-x="927" d="M115 0v1057h798v-223h-510v-834h-288zM295 1190l184 293h324l-305 -293h-203z" />
<glyph unicode="&#x454;" d="M74 520q0 256 148.5 411.5t393.5 155.5q205 0 336 -100t158 -274h-289q-39 158 -203 157q-96 0 -158.5 -60t-82.5 -171h334v-184h-340q14 -125 76.5 -192.5t164.5 -67.5q168 0 215 170h283q-37 -186 -168 -289t-330 -103q-244 0 -391 149.5t-147 397.5z" />
<glyph unicode="&#x455;" horiz-adv-x="1099" d="M59 344h277q14 -176 225 -176q88 0 140.5 36t52.5 95t-47.5 84t-174.5 53q-10 2 -16 4q-14 4 -63.5 14.5t-68.5 15.5t-63.5 17.5t-64.5 23.5t-54 28.5t-50.5 38t-36 48t-26.5 62.5t-7 76q0 156 121 239.5t342 83.5q199 0 326 -81.5t133 -255.5h-271q-12 80 -60 112.5 t-141 32.5q-78 0 -120.5 -27.5t-42.5 -76.5q0 -57 49 -80t176 -49q23 -4 33 -7q74 -14 117.5 -25.5t107 -37t98.5 -57t61.5 -85t26.5 -122.5q0 -166 -129 -262.5t-354 -96.5q-215 0 -354.5 92.5t-141.5 282.5z" />
<glyph unicode="&#x456;" horiz-adv-x="528" d="M119 0v1057h291v-1057h-291zM119 1212v246h291v-246h-291z" />
<glyph unicode="&#x457;" horiz-adv-x="528" d="M-88 1221v237h272v-237h-272zM119 0v1057h291v-1057h-291zM340 1221v237h272v-237h-272z" />
<glyph unicode="&#x458;" horiz-adv-x="569" d="M-39 -145q25 -2 53 -2q45 0 71 8t38 30.5t14 45t2 69.5v1051h291v-1059q0 -209 -74.5 -295t-277.5 -86q-57 0 -117 4v234zM139 1208v250h291v-250h-291z" />
<glyph unicode="&#x459;" horiz-adv-x="1683" d="M10 -12v231q51 -10 82 -10q125 0 131 219l17 629h809v-383h208q168 0 278 -86t110 -250q0 -168 -110 -253t-290 -85h-485v834h-240l-12 -373q-2 -61 -4 -97t-11.5 -95.5t-21.5 -95.5t-37.5 -80t-59.5 -67.5t-87.5 -41t-118.5 -17.5q-106 0 -158 21zM1049 207h125 q88 0 133 28.5t45 102.5q0 131 -178 131h-125v-262z" />
<glyph unicode="&#x45a;" horiz-adv-x="1683" d="M115 0v1057h288v-383h347v383h288v-383h219q168 0 278 -86t110 -250q0 -168 -110 -253t-290 -85h-495v469h-347v-469h-288zM1038 207h136q88 0 133 28.5t45 102.5q0 131 -178 131h-136v-262z" />
<glyph unicode="&#x45b;" d="M4 891v196h109v371h286v-371h510v-196h-510v-262q125 168 334 168q371 0 371 -391v-406h-291v336q0 109 -39 166t-147 57q-131 0 -179.5 -84t-48.5 -223v-252h-286v891h-109z" />
<glyph unicode="&#x45c;" d="M119 0v1057h284v-418l388 418h342l-404 -408l461 -649h-352l-306 449l-129 -132v-317h-284zM459 1190l184 293h324l-305 -293h-203z" />
<glyph unicode="&#x45e;" horiz-adv-x="1062" d="M-18 1057h313l242 -719l233 719h301l-389 -1053q-29 -80 -42 -111.5t-41 -89t-51.5 -80t-63.5 -51t-90 -39t-115 -10.5q-53 0 -195 2v240h141q72 0 110 37t38 104q0 16 -8 41zM213 1458h115q27 -135 219 -135t219 135h115q0 -295 -334 -295t-334 295z" />
<glyph unicode="&#x45f;" horiz-adv-x="1214" d="M115 0v1057h288v-834h408v834h289v-1057h-355v-311h-274v311h-356z" />
<glyph unicode="&#x490;" d="M141 0v1458h709v326h309v-598h-698v-1186h-320z" />
<glyph unicode="&#x491;" horiz-adv-x="927" d="M115 0v1057h524v291h274v-514h-510v-834h-288z" />
<glyph unicode="&#x2000;" horiz-adv-x="925" />
<glyph unicode="&#x2001;" horiz-adv-x="1851" />
<glyph unicode="&#x2002;" horiz-adv-x="925" />
<glyph unicode="&#x2003;" horiz-adv-x="1851" />
<glyph unicode="&#x2004;" horiz-adv-x="617" />
<glyph unicode="&#x2005;" horiz-adv-x="462" />
<glyph unicode="&#x2006;" horiz-adv-x="308" />
<glyph unicode="&#x2007;" horiz-adv-x="308" />
<glyph unicode="&#x2008;" horiz-adv-x="231" />
<glyph unicode="&#x2009;" horiz-adv-x="370" />
<glyph unicode="&#x200a;" horiz-adv-x="102" />
<glyph unicode="&#x2010;" horiz-adv-x="833" d="M109 428v260h616v-260h-616z" />
<glyph unicode="&#x2011;" horiz-adv-x="833" d="M109 428v260h616v-260h-616z" />
<glyph unicode="&#x2012;" horiz-adv-x="833" d="M109 428v260h616v-260h-616z" />
<glyph unicode="&#x2013;" horiz-adv-x="1024" d="M0 428v258h1024v-258h-1024z" />
<glyph unicode="&#x2014;" horiz-adv-x="2048" d="M0 428v258h2048v-258h-2048z" />
<glyph unicode="&#x2018;" horiz-adv-x="569" d="M123 799v250q0 176 72.5 278.5t250.5 130.5v-143q-139 -39 -145 -197h145v-319h-323z" />
<glyph unicode="&#x2019;" horiz-adv-x="569" d="M123 799v143q139 39 145 197h-145v319h323v-250q0 -176 -72.5 -278.5t-250.5 -130.5z" />
<glyph unicode="&#x201a;" horiz-adv-x="569" d="M123 0v319h323v-249q0 -176 -72.5 -278.5t-250.5 -131.5v143q139 39 145 197h-145z" />
<glyph unicode="&#x201c;" horiz-adv-x="948" d="M109 809v256q0 156 72.5 262.5t219.5 130.5v-135q-131 -39 -137 -201h137v-313h-292zM543 809v256q0 156 72.5 262.5t220.5 130.5v-135q-131 -39 -138 -201h138v-313h-293z" />
<glyph unicode="&#x201d;" horiz-adv-x="948" d="M113 809v135q131 39 137 201h-137v313h293v-256q0 -156 -73 -262t-220 -131zM547 809v135q131 39 137 201h-137v313h293v-256q0 -156 -73 -262t-220 -131z" />
<glyph unicode="&#x201e;" horiz-adv-x="948" d="M111 2v313h292v-256q0 -156 -72.5 -262t-219.5 -131v135q131 39 137 201h-137zM545 2v313h293v-256q0 -156 -73 -262t-220 -131v135q131 39 137 201h-137z" />
<glyph unicode="&#x2020;" horiz-adv-x="1138" d="M49 809v250h377v399h283v-399h381v-250h-381v-1145h-283v1145h-377z" />
<glyph unicode="&#x2021;" horiz-adv-x="1138" d="M49 53v242h379v532h-379v242h379v389h281v-389h381v-242h-381v-532h381v-242h-381v-389h-281v389h-379z" />
<glyph unicode="&#x2022;" horiz-adv-x="1026" d="M150 729.5q0 151.5 106 258t258 106.5q150 0 257.5 -106.5t107.5 -258t-107.5 -258t-257.5 -106.5q-152 0 -258 106.5t-106 258z" />
<glyph unicode="&#x2026;" horiz-adv-x="2048" d="M205 0v274h272v-274h-272zM887 0v274h272v-274h-272zM1569 0v274h272v-274h-272z" />
<glyph unicode="&#x202f;" horiz-adv-x="370" />
<glyph unicode="&#x2030;" horiz-adv-x="2349" d="M143 1090q0 170 78 262t221 92q297 0 297 -352q0 -166 -78.5 -258.5t-222 -92.5t-219.5 90.5t-76 258.5zM270 -57l901 1532h172l-897 -1532h-176zM326 1081q0 -205 114 -204q113 0 113 221q0 213 -115 213q-113 0 -112 -230zM899 319q0 174 78 264.5t225 90.5 q139 0 216 -89t77 -251q0 -176 -76 -268.5t-221 -92.5t-222 89.5t-77 256.5zM1081 324q0 -115 28 -165t91 -50q111 0 111 223q0 209 -113 209q-117 0 -117 -217zM1608 319q0 172 79 264.5t224 92.5q141 0 218 -90t77 -254q0 -174 -77 -266.5t-220 -92.5q-145 0 -223 89.5 t-78 256.5zM1790 322q0 -213 119 -213q113 0 112 221q1 213 -114 213q-117 0 -117 -221z" />
<glyph unicode="&#x2039;" horiz-adv-x="493" d="M76 408v270l319 250v-244l-182 -141l182 -144v-247z" />
<glyph unicode="&#x203a;" horiz-adv-x="493" d="M96 156v239l183 146l-183 143v248l322 -254v-275z" />
<glyph unicode="&#x205f;" horiz-adv-x="462" />
<glyph unicode="&#x2122;" horiz-adv-x="2048" d="M219 1319v139h615v-139h-220v-590h-172v590h-223zM930 729v729h246l178 -502l178 502h242v-729h-158v594l-207 -594h-115l-207 594v-594h-157z" />
<glyph unicode="&#x2206;" horiz-adv-x="1396" d="M18 0l557 1421h224l581 -1421h-1362zM340 213h709l-365 920z" />
<glyph unicode="&#x221a;" horiz-adv-x="1228" d="M-6 342l323 133l271 -575l350 1710h256l-434 -2048h-268l-316 653l-100 -47z" />
<glyph unicode="&#x221e;" horiz-adv-x="1650" d="M90 532.5q0 159.5 93 260t243 100.5q119 0 210 -63.5t189 -178.5q70 78 114 121t122 83t160 40q150 0 244 -100t94 -258q0 -162 -93.5 -263.5t-244.5 -101.5q-61 0 -116.5 17.5t-108 55.5t-85 68.5t-86.5 85.5l-70.5 -70.5t-63.5 -56.5t-79.5 -55t-79 -27.5t-100.5 -15.5 q-152 0 -247 99.5t-95 259zM283 530.5q0 -69.5 41 -111.5t108 -42q63 0 133 44t125 107q-164 160 -264 160q-61 0 -102 -44t-41 -113.5zM961 526q49 -47 80.5 -73.5t83 -52t98.5 -25.5q66 0 104.5 42.5t38.5 112.5q0 72 -41 116t-106 44q-98 0 -258 -164z" />
<glyph unicode="&#x2248;" horiz-adv-x="1228" d="M53 141q12 150 85 255.5t218 105.5q33 0 73 -8.5t64.5 -15.5t72.5 -23.5t65 -22.5q203 -68 258 -67q100 0 125 137h153q-37 -359 -309 -359q-43 0 -106.5 14.5t-105.5 29t-121 43t-99 34.5q-61 20 -92 21q-98 0 -127 -144h-154zM57 557q12 150 85 255.5t218 105.5 q33 0 73 -8.5t64.5 -15.5t72.5 -23.5t65 -22.5q203 -68 258 -68q100 0 125 138h153q-37 -359 -309 -359q-43 0 -106.5 14.5t-105.5 28.5t-120.5 43t-99.5 35q-61 20 -92 20q-98 0 -127 -143h-154z" />
<glyph unicode="&#x2260;" horiz-adv-x="1228" d="M82 203v229h348l100 199h-448v229h565l168 332l213 -107l-115 -225h234v-229h-350l-103 -199h453v-229h-569l-168 -334l-213 106l116 228h-231z" />
<glyph unicode="&#x2264;" horiz-adv-x="1228" d="M82 -72v228h1063v-228h-1063zM82 559v209l1063 367v-240l-739 -231l739 -220v-239z" />
<glyph unicode="&#x2265;" horiz-adv-x="1228" d="M82 -72v228h1063v-228h-1063zM82 205v239l737 220l-737 231v240l1063 -367v-209z" />
<glyph unicode="&#x25fc;" horiz-adv-x="1054" d="M0 0v1055h1055v-1055h-1055z" />
</font>
</defs>
</svg>
